<?xml version="1.0" encoding="UTF-8" standalone="no"?>
<svg
   width="128"
   height="128"
   version="1.1"
   id="svg6"
   sodipodi:docname="icon.draft.svg"
   inkscape:version="1.3.2 (091e20e, 2023-11-25, custom)"
   xmlns:inkscape="http://www.inkscape.org/namespaces/inkscape"
   xmlns:sodipodi="http://sodipodi.sourceforge.net/DTD/sodipodi-0.dtd"
   xmlns="http://www.w3.org/2000/svg"
   xmlns:svg="http://www.w3.org/2000/svg">
  <defs
     id="defs6" />
  <sodipodi:namedview
     id="namedview6"
     pagecolor="#505050"
     bordercolor="#ffffff"
     borderopacity="1"
     inkscape:showpageshadow="0"
     inkscape:pageopacity="0"
     inkscape:pagecheckerboard="1"
     inkscape:deskcolor="#d1d1d1"
     inkscape:zoom="4"
     inkscape:cx="43.25"
     inkscape:cy="58.875"
     inkscape:window-width="1600"
     inkscape:window-height="837"
     inkscape:window-x="-8"
     inkscape:window-y="-8"
     inkscape:window-maximized="1"
     inkscape:current-layer="svg6" />
  <path
     id="rect6"
     style="fill:#101018;fill-opacity:1;stroke-width:2.42257;stroke-linecap:round;stroke-linejoin:round"
     d="m 33,10 c -1.661996,0 -3,1.338004 -3,3 v 102.23047 c 0,1.662 1.338004,3 3,3 h 66 c 1.662,0 3,-1.338 3,-3 V 41.169922 H 76.300781 C 73.677677,41.369154 71.166026,39.214056 71.017578,36.578125 70.976528,28.152926 71.01174,19.726675 71,11.300781 70.961876,10.858601 70.977488,10.4246 71.046875,10 Z" />
  <path
     style="fill:#101018;fill-opacity:1;stroke-width:2.42257;stroke-linecap:round;stroke-linejoin:round"
     d="M 102.17189,39.16991 73,10 l 2e-6,26.16992 c 1e-6,1.661998 1.338002,2.999999 3,2.999999 z"
     id="path8" />
  <rect
     style="fill:#ff00ff;fill-opacity:1;stroke-width:2.3;stroke-linecap:round;stroke-linejoin:round"
     id="rect8"
     width="8"
     height="8"
     x="37"
     y="35" />
  <rect
     style="fill:#00ff00;fill-opacity:1;stroke-width:3.25269;stroke-linecap:round;stroke-linejoin:round"
     id="rect9"
     width="16"
     height="8"
     x="49"
     y="35" />
  <rect
     style="fill:#ff00ff;fill-opacity:1;stroke-width:2.3;stroke-linecap:round;stroke-linejoin:round"
     id="rect10"
     width="8"
     height="8"
     x="37"
     y="47" />
  <rect
     style="fill:#00ff00;fill-opacity:1;stroke-width:3.25269;stroke-linecap:round;stroke-linejoin:round"
     id="rect11"
     width="16"
     height="8"
     x="49"
     y="47" />
  <rect
     style="fill:#333333;fill-opacity:1;stroke-width:2.3;stroke-linecap:round;stroke-linejoin:round"
     id="rect12"
     width="8"
     height="8"
     x="69"
     y="47" />
  <rect
     style="fill:#0000ff;fill-opacity:1;stroke-width:2.81691;stroke-linecap:round;stroke-linejoin:round"
     id="rect14"
     width="12"
     height="8"
     x="49"
     y="59" />
  <rect
     style="fill:#ff0000;fill-opacity:1;stroke-width:2.3;stroke-linecap:round;stroke-linejoin:round"
     id="rect15"
     width="8"
     height="8"
     x="65"
     y="59" />
  <rect
     style="fill:#ffd5d5;fill-opacity:1;stroke-width:3.25269;stroke-linecap:round;stroke-linejoin:round"
     id="rect16"
     width="16"
     height="8"
     x="77"
     y="59" />
  <rect
     style="fill:#0000ff;fill-opacity:1;stroke-width:2.81691;stroke-linecap:round;stroke-linejoin:round"
     id="rect18"
     width="12"
     height="8"
     x="49"
     y="71" />
  <rect
     style="fill:#ff00ff;fill-opacity:1;stroke-width:2.57148;stroke-linecap:round;stroke-linejoin:round"
     id="rect19"
     width="10"
     height="8"
     x="65"
     y="71" />
  <rect
     style="fill:#f9f9f9;fill-opacity:1;stroke-width:2.81691;stroke-linecap:round;stroke-linejoin:round"
     id="rect20"
     width="12"
     height="8"
     x="79"
     y="71" />
  <rect
     style="fill:#333333;fill-opacity:1;stroke-width:2.3;stroke-linecap:round;stroke-linejoin:round"
     id="rect21"
     width="8"
     height="8"
     x="37"
     y="83" />
</svg>
